<?xml version="1.0" encoding="UTF-8"?>
<svg id="_レイヤー_2" data-name="レイヤー 2" xmlns="http://www.w3.org/2000/svg" viewBox="0 0 2000 2000">
  <defs>
    <style>
      .cls-1 {
        fill: #fff;
      }
    </style>
  </defs>
  <g id="Layer_1" data-name="Layer 1">
    <g>
      <rect class="cls-1" x=".5" y=".5" width="1999" height="1999"/>
      <path d="M1999,1v1998H1V1h1998M2000,0H0v2000h2000V0h0Z"/>
    </g>
    <g>
      <path d="M823.27,890.7c1.77.85,3.64,1.25,5.47,1.25,4.73,0,9.26-2.65,11.44-7.19,15.62-32.59,45.78-55.25,81.19-61.71,21.27,18.22,48.54,29.64,78.68,29.64s57.41-11.42,78.69-29.64c35.15,6.42,65.32,29.03,81.24,61.54,2.2,4.5,6.71,7.11,11.41,7.11,1.87,0,3.76-.41,5.56-1.29,6.29-3.08,8.89-10.67,5.82-16.97-17.13-34.97-47.78-60.57-84.17-71.63,14.4-19.99,23.12-44.32,23.12-70.78,0-67.09-54.57-121.67-121.67-121.67s-121.65,54.57-121.65,121.67c0,26.46,8.72,50.78,23.12,70.77-36.68,11.1-67.34,36.83-84.19,71.99-3.03,6.32-.37,13.89,5.94,16.92ZM1000.06,634.73c53.1,0,96.31,43.21,96.31,96.31s-43.21,96.29-96.31,96.29-96.29-43.19-96.29-96.29,43.19-96.31,96.29-96.31Z"/>
      <path d="M1402.03,1039.6c14.45-20.01,23.2-44.37,23.2-70.88,0-67.08-54.57-121.65-121.65-121.65s-121.67,54.57-121.67,121.65c0,26.52,8.76,50.9,23.22,70.91-27.3,8.28-51.47,24.53-69.19,47.78-4.25,5.57-3.18,13.52,2.39,17.77,2.3,1.76,5,2.6,7.68,2.6,3.83,0,7.6-1.72,10.09-4.99,17.12-22.44,41.53-36.99,68.91-41.94,21.26,18.16,48.48,29.54,78.56,29.54s57.3-11.39,78.56-29.55c52.99,9.83,92.5,56.57,92.5,111.12v95.96c-89.34,22.59-183.52,27.24-278.03,12.74v-32.54c0-61.42-41-114.8-98.16-132.33,14.49-20.03,23.28-44.42,23.28-70.98,0-67.08-54.57-121.65-121.67-121.65s-121.65,54.57-121.65,121.65c0,26.56,8.79,50.96,23.28,70.98-57.17,17.53-98.18,70.92-98.18,132.33v32.56c-93.41,14.39-188.53,9.92-278.14-12.76v-95.96c0-54.53,39.57-101.25,92.65-111.1,21.26,18.15,48.47,29.53,78.54,29.53s57.3-11.39,78.56-29.55c27.37,4.92,51.78,19.46,68.92,41.95,2.49,3.27,6.27,4.99,10.09,4.99,2.67,0,5.37-.84,7.68-2.6,5.57-4.25,6.64-12.2,2.39-17.77-17.75-23.28-41.91-39.53-69.2-47.79,14.45-20.01,23.21-44.38,23.21-70.89,0-67.08-54.57-121.65-121.65-121.65s-121.65,54.57-121.65,121.65c0,26.52,8.76,50.88,23.21,70.89-57.13,17.58-98.1,70.96-98.1,132.34v105.75c0,5.73,3.85,10.76,9.4,12.25,60.63,16.27,123.6,24.53,187.15,24.53,35.56,0,71.43-3.14,106.96-8.43v47.7c0,5.73,3.84,10.75,9.36,12.23,60.41,16.36,123.39,24.64,187.19,24.64s126.79-8.28,187.19-24.64c5.52-1.49,9.36-6.51,9.36-12.23v-47.72c35.74,5.3,71.61,8.45,106.84,8.45,63.55,0,126.52-8.26,187.15-24.53,5.55-1.49,9.4-6.51,9.4-12.25v-105.75c0-61.39-40.92-114.79-97.97-132.36ZM1207.27,968.72c0-53.1,43.21-96.29,96.31-96.29s96.29,43.19,96.29,96.29-43.19,96.31-96.29,96.31-96.31-43.21-96.31-96.31ZM696.55,872.43c53.1,0,96.29,43.19,96.29,96.29s-43.19,96.31-96.29,96.31-96.29-43.21-96.29-96.31,43.19-96.29,96.29-96.29ZM1000.06,948.51c53.1,0,96.31,43.19,96.31,96.29s-43.21,96.31-96.31,96.31-96.29-43.21-96.29-96.31,43.19-96.29,96.29-96.29ZM1171.24,1343.97c-110.73,28.28-231.62,28.28-342.38,0v-95.86c0-54.57,39.63-101.33,92.74-111.09,21.24,18.1,48.41,29.45,78.45,29.45s57.21-11.35,78.46-29.45c53.12,9.76,92.73,56.52,92.73,111.1v95.86Z"/>
    </g>
  </g>
</svg>