<?xml version="1.0" encoding="UTF-8"?>
<svg id="_レイヤー_2" data-name="レイヤー 2" xmlns="http://www.w3.org/2000/svg" viewBox="0 0 268.78 212.46">
  <defs>
    <style>
      .cls-1 {
        fill: #3d5b7a;
        stroke: #3d5b7a;
      }

      .cls-1, .cls-2 {
        stroke-miterlimit: 10;
      }

      .cls-2 {
        fill: #b5c3f5;
        stroke: #b5c3f5;
        stroke-width: 1.11px;
      }
    </style>
  </defs>
  <g id="_レイヤー_6" data-name="レイヤー 6">
    <path class="cls-2" d="M113.65.55c8.28,0,16.29,1.15,23.88,3.3v46.77H34.51C48.55,21.02,78.71.55,113.65.55Z"/>
    <path class="cls-2" d="M26.23,83.31h111.3v89.03c-7.59,2.15-15.6,3.3-23.88,3.3-48.35,0-87.55-39.19-87.55-87.54,0-1.61.04-3.2.13-4.79Z"/>
    <path class="cls-2" d="M192.78,50.62h-22.57v-29.34c9.46,8.01,17.2,18,22.57,29.34Z"/>
    <path class="cls-2" d="M201.19,88.1c0,26.79-12.03,50.76-30.98,66.81v-71.6h30.85c.09,1.59.13,3.18.13,4.79Z"/>
    <path class="cls-1" d="M266.43,123.03c-43.33,18.94-62.12,7.5-67.94,2.11-1.26-1.18-3.24-1.06-4.38.24-14.08,16.11-35.78,41.63-70.55,49.64,1.1,18.2,3.29,40.48-1.69,36.46-5.3-4.28-16.52-14.87-24.68-34.05-1.79-.06-3.61-.18-5.46-.34-24.07-2.1-40.2-14.81-50.61-29.46C21.73,173.79-3.36,172.78,1,169.22c4.59-3.74,13.59-34.24,27.93-45.59-3.92-11.43-4.91-21.09-4.13-24.46,2.27-9.81-1.24-80.8,66.35-98.52.26-.07.53-.1.8-.1h5.28c.14,0,.27.01.41.02,19.07,2.3,10.87,20.06,18.31,40.16,7.3,19.71,13.68,54.78,14.05,87.69.02,1.39.97,2.6,2.31,2.95,21.4,5.62,36.21-3.18,42.17-7.82,1.49-1.16,1.6-3.36.23-4.65-8.36-7.86-14.59-26.91-16.35-34.76-1.94-8.69,1.44-44.17,6.21-29.29,4.77,14.89,20.25,20.35,21.49,34.75,1.53,12.4,3.33,18.23,4.79,20.93.86,1.58,2.92,2.04,4.4,1.02,21.42-14.69,57.24-.64,71.25,5.86,2.4,1.12,2.36,4.56-.07,5.62Z"/>
  </g>
</svg>