<?xml version="1.0" encoding="UTF-8"?>
<svg id="_レイヤー_2" data-name="レイヤー 2" xmlns="http://www.w3.org/2000/svg" viewBox="0 0 268.78 212.41">
  <defs>
    <style>
      .cls-1 {
        fill: #fff;
        stroke: #fff;
        stroke-miterlimit: 10;
      }
    </style>
  </defs>
  <g id="sampleのコピー">
    <path class="cls-1" d="M266.43,122.98c-43.33,18.94-62.12,7.5-67.94,2.11-1.26-1.18-3.24-1.06-4.38.24-14.08,16.11-35.78,41.63-70.55,49.64,1.1,18.2,3.29,40.48-1.69,36.46-5.3-4.28-16.52-14.87-24.68-34.05-1.79-.06-3.61-.18-5.46-.34-24.07-2.1-40.2-14.81-50.61-29.46C21.73,173.74-3.36,172.73,1,169.17c4.59-3.74,13.59-34.24,27.93-45.59-3.92-11.43-4.91-21.09-4.13-24.46,2.27-9.81-1.24-80.8,66.35-98.52.26-.07.53-.1.8-.1h5.28c.14,0,.27.01.41.02,19.07,2.3,10.87,20.06,18.31,40.16,7.3,19.71,13.68,54.78,14.05,87.69.02,1.39.97,2.6,2.31,2.95,21.4,5.62,36.21-3.18,42.17-7.82,1.49-1.16,1.6-3.36.23-4.65-8.36-7.86-14.59-26.91-16.35-34.76-1.94-8.69,1.44-44.17,6.21-29.29,4.77,14.89,20.25,20.35,21.49,34.75,1.53,12.4,3.33,18.23,4.79,20.93.86,1.58,2.92,2.04,4.4,1.02,21.42-14.69,57.24-.64,71.25,5.86,2.4,1.12,2.36,4.56-.07,5.62Z"/>
  </g>
</svg>